<svg width="40" height="40" viewBox="0 0 40 40" fill="none" xmlns="http://www.w3.org/2000/svg">
<rect x="0.655738" y="0.655738" width="38.6885" height="38.6885" rx="3.93443" fill="url(#paint0_radial_186_132)"/>
<rect x="0.655738" y="0.655738" width="38.6885" height="38.6885" rx="3.93443" stroke="white" stroke-width="1.31148"/>
<path d="M14.3975 15.1332L10.3402 27.5H7.07172L12.6148 12.582H14.6947L14.3975 15.1332ZM17.7684 27.5L13.7008 15.1332L13.373 12.582H15.4734L21.0471 27.5H17.7684ZM17.584 21.9467V24.3545H9.70492V21.9467H17.584ZM22.2459 11.7623H25.1967V24.959L24.8996 27.5H22.2459V11.7623ZM32.2152 21.8443V22.0594C32.2152 22.8859 32.1264 23.6441 31.9488 24.334C31.778 25.0239 31.5116 25.6216 31.1496 26.127C30.7876 26.6257 30.3367 27.015 29.7971 27.2951C29.2643 27.5683 28.6359 27.7049 27.9119 27.7049C27.2357 27.7049 26.6482 27.5683 26.1496 27.2951C25.6578 27.0219 25.2445 26.6359 24.9098 26.1373C24.5751 25.6387 24.3053 25.0546 24.1004 24.3852C23.8955 23.7158 23.7418 22.985 23.6393 22.1926V21.7213C23.7418 20.929 23.8955 20.1981 24.1004 19.5287C24.3053 18.8593 24.5751 18.2753 24.9098 17.7766C25.2445 17.278 25.6578 16.8921 26.1496 16.6189C26.6414 16.3456 27.222 16.209 27.8914 16.209C28.6223 16.209 29.2575 16.349 29.7971 16.6291C30.3436 16.9023 30.7944 17.2917 31.1496 17.7971C31.5116 18.2958 31.778 18.89 31.9488 19.5799C32.1264 20.263 32.2152 21.0178 32.2152 21.8443ZM29.2643 22.0594V21.8443C29.2643 21.3934 29.2302 20.9699 29.1619 20.5738C29.1004 20.1708 28.9911 19.819 28.834 19.5184C28.6769 19.2111 28.4617 18.9686 28.1885 18.791C27.9221 18.6134 27.5772 18.5246 27.1537 18.5246C26.7507 18.5246 26.4092 18.5929 26.1291 18.7295C25.849 18.8661 25.6168 19.0574 25.4324 19.3033C25.2548 19.5492 25.1216 19.8429 25.0328 20.1844C24.944 20.5191 24.8893 20.888 24.8689 21.291V22.6332C24.8893 23.1728 24.9781 23.651 25.1352 24.0676C25.2992 24.4775 25.5451 24.8019 25.873 25.041C26.2076 25.2732 26.6414 25.3893 27.1742 25.3893C27.5908 25.3893 27.9358 25.3074 28.209 25.1434C28.4822 24.9795 28.694 24.7473 28.8443 24.4467C29.0014 24.1462 29.1107 23.7944 29.1721 23.3914C29.2336 22.9816 29.2643 22.5376 29.2643 22.0594Z" fill="white"/>
<defs>
<radialGradient id="paint0_radial_186_132" cx="0" cy="0" r="1" gradientUnits="userSpaceOnUse" gradientTransform="translate(9.83606 8.52459) rotate(56.7251) scale(37.6479)">
<stop stop-color="white" stop-opacity="0.25"/>
<stop offset="1" stop-color="white" stop-opacity="0.07"/>
</radialGradient>
</defs>
</svg>
