<svg width="40" height="40" viewBox="0 0 40 40" fill="none" xmlns="http://www.w3.org/2000/svg">
<g clip-path="url(#clip0_182_2)">
<rect width="40" height="40" rx="4" fill="black"/>
<path d="M35.4093 0.655762H4.5897C2.41678 0.655762 0.655273 2.41727 0.655273 4.59019V35.4098C0.655273 37.5828 2.41678 39.3443 4.5897 39.3443H35.4093C37.5823 39.3443 39.3438 37.5828 39.3438 35.4098V4.59019C39.3438 2.41727 37.5823 0.655762 35.4093 0.655762Z" fill="url(#paint0_radial_182_2)"/>
<path d="M35.4093 0.655762H4.5897C2.41678 0.655762 0.655273 2.41727 0.655273 4.59019V35.4098C0.655273 37.5828 2.41678 39.3443 4.5897 39.3443H35.4093C37.5823 39.3443 39.3438 37.5828 39.3438 35.4098V4.59019C39.3438 2.41727 37.5823 0.655762 35.4093 0.655762Z" stroke="white" stroke-width="1.31148"/>
<path d="M14.3971 15.1331L10.3398 27.4999H7.07129L12.6144 12.5819H14.6943L14.3971 15.1331ZM17.768 27.4999L13.7004 15.1331L13.3726 12.5819H15.473L21.0467 27.4999H17.768ZM17.5836 21.9466V24.3544H9.70449V21.9466H17.5836ZM22.2455 11.7622H25.1963V24.9589L24.8992 27.4999H22.2455V11.7622ZM32.2148 21.8442V22.0593C32.2148 22.8858 32.126 23.644 31.9484 24.3339C31.7776 25.0238 31.5112 25.6215 31.1492 26.1269C30.7872 26.6256 30.3363 27.0149 29.7967 27.295C29.2639 27.5682 28.6355 27.7048 27.9115 27.7048C27.2353 27.7048 26.6478 27.5682 26.1492 27.295C25.6574 27.0218 25.2441 26.6358 24.9094 26.1372C24.5747 25.6386 24.3049 25.0545 24.1 24.3851C23.8951 23.7157 23.7414 22.9849 23.6389 22.1925V21.7212C23.7414 20.9289 23.8951 20.198 24.1 19.5286C24.3049 18.8592 24.5747 18.2752 24.9094 17.7765C25.2441 17.2779 25.6574 16.892 26.1492 16.6188C26.641 16.3455 27.2216 16.2089 27.891 16.2089C28.6219 16.2089 29.2571 16.3489 29.7967 16.629C30.3432 16.9022 30.794 17.2916 31.1492 17.797C31.5112 18.2957 31.7776 18.8899 31.9484 19.5798C32.126 20.2629 32.2148 21.0177 32.2148 21.8442ZM29.2639 22.0593V21.8442C29.2639 21.3933 29.2298 20.9698 29.1615 20.5737C29.1 20.1707 28.9907 19.8189 28.8336 19.5183C28.6765 19.211 28.4613 18.9685 28.1881 18.7909C27.9217 18.6133 27.5768 18.5245 27.1533 18.5245C26.7503 18.5245 26.4088 18.5928 26.1287 18.7294C25.8486 18.866 25.6164 19.0573 25.432 19.3032C25.2544 19.5491 25.1212 19.8428 25.0324 20.1843C24.9436 20.519 24.8889 20.8879 24.8685 21.2909V22.6331C24.8889 23.1727 24.9777 23.6509 25.1348 24.0675C25.2988 24.4774 25.5447 24.8018 25.8726 25.0409C26.2072 25.2731 26.641 25.3892 27.1738 25.3892C27.5904 25.3892 27.9354 25.3073 28.2086 25.1433C28.4818 24.9794 28.6936 24.7472 28.8439 24.4466C29.001 24.1461 29.1103 23.7943 29.1717 23.3913C29.2332 22.9815 29.2639 22.5375 29.2639 22.0593Z" fill="white"/>
</g>
<defs>
<radialGradient id="paint0_radial_182_2" cx="0" cy="0" r="1" gradientUnits="userSpaceOnUse" gradientTransform="translate(9.83559 8.52462) rotate(56.7251) scale(37.6479)">
<stop stop-color="white" stop-opacity="0.25"/>
<stop offset="1" stop-color="white" stop-opacity="0.07"/>
</radialGradient>
<clipPath id="clip0_182_2">
<rect width="40" height="40" rx="4" fill="white"/>
</clipPath>
</defs>
</svg>
