<svg width="48" height="48" viewBox="0 0 48 48" fill="none" xmlns="http://www.w3.org/2000/svg">
<g clip-path="url(#clip0_182_6)">
<rect width="48" height="48" rx="6" fill="black"/>
<path d="M42.24 0H5.76C2.57884 0 0 2.57884 0 5.76V42.24C0 45.4212 2.57884 48 5.76 48H42.24C45.4212 48 48 45.4212 48 42.24V5.76C48 2.57884 45.4212 0 42.24 0Z" fill="url(#paint0_radial_182_6)"/>
<mask id="mask0_182_6" style="mask-type:luminance" maskUnits="userSpaceOnUse" x="6" y="10" width="36" height="29">
<path d="M41.2797 10.5601H6.71973V38.8801H41.2797V10.5601Z" fill="white"/>
</mask>
<g mask="url(#mask0_182_6)">
<path d="M36.022 11.04L34.0895 14.3702L30.7178 20.1884L32.6477 23.5186L37.9519 14.3702L39.8817 11.04H36.022Z" fill="white" stroke="white" stroke-width="0.24" stroke-miterlimit="10"/>
<path d="M24.0187 31.7408L21.3126 27.0729L26.0827 18.8521L28.0126 15.5218L28.6796 14.3702L30.6108 11.04H18.8368L16.9043 14.3702H24.8225L24.1528 15.5244L19.3867 23.7466L17.4542 27.0768L19.3841 30.4032L22.0888 35.0697L24.0187 38.4L25.9512 35.0697L30.7173 26.845L28.7874 23.516L24.0187 31.7408Z" fill="white" stroke="white" stroke-width="0.24" stroke-miterlimit="10"/>
<path d="M13.9501 14.3702L12.019 11.04H8.15918L10.0891 14.3702L13.4989 20.2486L15.4275 23.5776L17.3574 20.2486L15.4275 16.921L13.9501 14.3702Z" fill="white" stroke="white" stroke-width="0.24" stroke-miterlimit="10"/>
</g>
</g>
<defs>
<radialGradient id="paint0_radial_182_6" cx="0" cy="0" r="1" gradientUnits="userSpaceOnUse" gradientTransform="translate(11.8033 10.2295) rotate(56.7251) scale(45.1774)">
<stop stop-color="white" stop-opacity="0.25"/>
<stop offset="1" stop-color="white" stop-opacity="0.05"/>
</radialGradient>
<clipPath id="clip0_182_6">
<rect width="48" height="48" rx="6" fill="white"/>
</clipPath>
</defs>
</svg>
