<svg width="500" height="500" viewBox="0 0 500 500" fill="none" xmlns="http://www.w3.org/2000/svg">
<rect x="8.19672" y="8.19666" width="483.607" height="483.607" rx="49.1803" fill="url(#paint0_radial_291_11)"/>
<rect x="8.19672" y="8.19666" width="483.607" height="483.607" rx="49.1803" stroke="white" stroke-width="16.3934"/>
<path d="M180.469 184.915L129.752 339.5H88.8965L158.184 153.025H184.183L180.469 184.915ZM222.606 339.5L171.76 184.915L167.662 153.025H193.917L263.589 339.5H222.606ZM220.3 270.084V300.181H121.811V270.084H220.3ZM278.574 142.779H315.459V307.738L311.745 339.5H278.574V142.779ZM403.19 268.803V271.493C403.19 281.824 402.08 291.302 399.86 299.925C397.725 308.549 394.395 316.02 389.87 322.338C385.345 328.571 379.709 333.438 372.964 336.938C366.304 340.354 358.449 342.061 349.399 342.061C340.946 342.061 333.603 340.354 327.37 336.938C321.222 333.523 316.057 328.699 311.873 322.466C307.689 316.233 304.317 308.933 301.755 300.566C299.194 292.198 297.273 283.062 295.992 273.158V267.266C297.273 257.362 299.194 248.226 301.755 239.859C304.317 231.491 307.689 224.191 311.873 217.958C316.057 211.725 321.222 206.901 327.37 203.486C333.517 200.07 340.775 198.363 349.142 198.363C358.278 198.363 366.219 200.113 372.964 203.614C379.795 207.029 385.43 211.896 389.87 218.214C394.395 224.447 397.725 231.875 399.86 240.499C402.08 249.037 403.19 258.472 403.19 268.803ZM366.304 271.493V268.803C366.304 263.168 365.877 257.874 365.024 252.922C364.255 247.885 362.889 243.487 360.925 239.73C358.961 235.888 356.272 232.857 352.857 230.637C349.527 228.417 345.215 227.307 339.921 227.307C334.884 227.307 330.614 228.161 327.114 229.869C323.613 231.576 320.71 233.967 318.405 237.041C316.185 240.115 314.52 243.786 313.41 248.055C312.3 252.239 311.617 256.85 311.361 261.887V278.665C311.617 285.41 312.727 291.387 314.691 296.595C316.74 301.718 319.814 305.774 323.912 308.762C328.096 311.665 333.517 313.117 340.177 313.117C345.386 313.117 349.697 312.092 353.113 310.043C356.528 307.994 359.175 305.091 361.053 301.334C363.017 297.577 364.383 293.18 365.152 288.142C365.92 283.019 366.304 277.47 366.304 271.493Z" fill="white"/>
<defs>
<radialGradient id="paint0_radial_291_11" cx="0" cy="0" r="1" gradientUnits="userSpaceOnUse" gradientTransform="translate(122.951 106.557) rotate(56.7251) scale(470.598)">
<stop stop-color="white" stop-opacity="0.25"/>
<stop offset="1" stop-color="white" stop-opacity="0.07"/>
</radialGradient>
</defs>
</svg>
