<svg width="457" height="133" viewBox="0 0 457 133" fill="none" xmlns="http://www.w3.org/2000/svg">
<rect x="1.60215" y="18.9227" width="94.5266" height="94.5266" rx="9.61287" fill="url(#paint0_radial_291_3)"/>
<rect x="1.60215" y="18.9227" width="94.5266" height="94.5266" rx="9.61287" stroke="white" stroke-width="3.20429"/>
<path d="M34.9397 53.9705L25.0264 84.186H17.0407L30.5838 47.7372H35.6657L34.9397 53.9705ZM43.1757 84.186L33.2374 53.9705L32.4363 47.7372H37.5682L51.1864 84.186H43.1757ZM42.7251 70.6178V76.5007H23.4743V70.6178H42.7251ZM54.1154 45.7345H61.325V77.9777L60.599 84.186H54.1154V45.7345ZM78.473 70.3675V70.8932C78.473 72.9125 78.256 74.765 77.8221 76.4506C77.4049 78.1362 76.754 79.5965 75.8695 80.8315C74.985 82.0498 73.8835 83.0011 72.5651 83.6853C71.2633 84.3529 69.7279 84.6866 67.9589 84.6866C66.3067 84.6866 64.8714 84.3529 63.6531 83.6853C62.4515 83.0177 61.4418 82.0748 60.6241 80.8565C59.8063 79.6382 59.1471 78.2113 58.6464 76.5758C58.1458 74.9403 57.7703 73.1545 57.5199 71.2186V70.0671C57.7703 68.1311 58.1458 66.3454 58.6464 64.7099C59.1471 63.0744 59.8063 61.6475 60.6241 60.4292C61.4418 59.2109 62.4515 58.2679 63.6531 57.6004C64.8547 56.9328 66.2733 56.599 67.9088 56.599C69.6946 56.599 71.2466 56.9412 72.5651 57.6254C73.9002 58.293 75.0017 59.2442 75.8695 60.4792C76.754 61.6975 77.4049 63.1495 77.8221 64.8351C78.256 66.504 78.473 68.3481 78.473 70.3675ZM71.2633 70.8932V70.3675C71.2633 69.266 71.1799 68.2313 71.013 67.2633C70.8628 66.2787 70.5958 65.4192 70.2119 64.6849C69.8281 63.9339 69.3024 63.3414 68.6348 62.9075C67.9839 62.4736 67.1411 62.2566 66.1064 62.2566C65.1218 62.2566 64.2873 62.4235 63.6031 62.7573C62.9188 63.0911 62.3514 63.5584 61.9008 64.1592C61.4669 64.76 61.1414 65.4776 60.9245 66.312C60.7075 67.1298 60.574 68.031 60.5239 69.0157V72.2951C60.574 73.6135 60.791 74.7817 61.1748 75.7997C61.5753 76.8011 62.1762 77.5938 62.9772 78.1779C63.795 78.7454 64.8547 79.0291 66.1565 79.0291C67.1745 79.0291 68.0173 78.8288 68.6849 78.4283C69.3524 78.0277 69.8698 77.4603 70.2369 76.726C70.6208 75.9917 70.8878 75.1322 71.038 74.1475C71.1882 73.1462 71.2633 72.0614 71.2633 70.8932Z" fill="white"/>
<path d="M164.553 52.3664H150.47L148.213 59.0317H138.591L152.244 21.2978H162.887L176.54 59.0317H166.811L164.553 52.3664ZM162.188 45.2712L157.512 31.4569L152.889 45.2712H162.188ZM203.54 39.681C205.726 40.1468 207.482 41.2398 208.807 42.9598C210.133 44.6441 210.796 46.5791 210.796 48.765C210.796 51.9185 209.685 54.4269 207.464 56.2903C205.278 58.1179 202.214 59.0317 198.272 59.0317H180.695V21.2978H197.681C201.515 21.2978 204.507 22.1757 206.657 23.9316C208.843 25.6875 209.936 28.0705 209.936 31.0806C209.936 33.3024 209.345 35.1479 208.162 36.6171C207.016 38.0863 205.475 39.1076 203.54 39.681ZM189.887 36.5634H195.907C197.412 36.5634 198.559 36.2408 199.347 35.5958C200.171 34.915 200.583 33.9295 200.583 32.6395C200.583 31.3494 200.171 30.364 199.347 29.6831C198.559 29.0022 197.412 28.6618 195.907 28.6618H189.887V36.5634ZM196.66 51.6139C198.2 51.6139 199.383 51.2735 200.207 50.5926C201.067 49.8759 201.497 48.8546 201.497 47.5288C201.497 46.2029 201.049 45.1637 200.153 44.4111C199.293 43.6586 198.093 43.2823 196.552 43.2823H189.887V51.6139H196.66Z" fill="white"/>
<path d="M166.918 83.8407C166.918 86.9583 165.843 89.5563 163.693 91.6347C161.579 93.6773 158.336 94.6986 153.964 94.6986H146.761V110.34H141.87V72.8753H153.964C158.193 72.8753 161.4 73.8966 163.586 75.9391C165.807 77.9817 166.918 80.6155 166.918 83.8407ZM153.964 90.6672C156.687 90.6672 158.694 90.0759 159.984 88.8934C161.274 87.7108 161.919 86.0266 161.919 83.8407C161.919 79.218 159.268 76.9067 153.964 76.9067H146.761V90.6672H153.964ZM177.889 85.6682C178.749 83.984 179.968 82.676 181.544 81.7443C183.157 80.8126 185.11 80.3468 187.403 80.3468V85.3995H186.113C180.63 85.3995 177.889 88.3738 177.889 94.3223V110.34H172.998V80.8843H177.889V85.6682ZM205.896 110.824C203.137 110.824 200.629 110.197 198.371 108.943C196.149 107.689 194.394 105.915 193.103 103.621C191.849 101.292 191.222 98.6045 191.222 95.5586C191.222 92.5485 191.867 89.8967 193.157 87.6033C194.483 85.2741 196.275 83.5002 198.532 82.2819C200.79 81.0276 203.316 80.4005 206.111 80.4005C208.907 80.4005 211.433 81.0276 213.69 82.2819C215.948 83.5002 217.722 85.2561 219.012 87.5496C220.338 89.843 221.001 92.5127 221.001 95.5586C221.001 98.6045 220.32 101.292 218.958 103.621C217.632 105.915 215.823 107.689 213.529 108.943C211.236 110.197 208.692 110.824 205.896 110.824ZM205.896 106.524C207.652 106.524 209.301 106.112 210.842 105.288C212.383 104.464 213.619 103.227 214.551 101.579C215.518 99.9304 216.002 97.9237 216.002 95.5586C216.002 93.1935 215.536 91.1868 214.604 89.5384C213.673 87.89 212.454 86.6716 210.949 85.8832C209.444 85.059 207.814 84.6469 206.058 84.6469C204.266 84.6469 202.618 85.059 201.113 85.8832C199.643 86.6716 198.461 87.89 197.565 89.5384C196.669 91.1868 196.221 93.1935 196.221 95.5586C196.221 97.9595 196.651 99.9842 197.511 101.633C198.407 103.281 199.59 104.517 201.059 105.341C202.528 106.13 204.141 106.524 205.896 106.524ZM225.605 95.5048C225.605 92.4947 226.214 89.8609 227.432 87.6033C228.65 85.3099 230.317 83.5361 232.431 82.2819C234.581 81.0276 236.982 80.4005 239.634 80.4005C241.927 80.4005 244.059 80.9381 246.03 82.0131C248.001 83.0523 249.506 84.4319 250.545 86.152V70.5639H255.491V110.34H250.545V104.804C249.578 106.56 248.145 108.011 246.245 109.158C244.346 110.269 242.124 110.824 239.58 110.824C236.964 110.824 234.581 110.179 232.431 108.889C230.317 107.599 228.65 105.789 227.432 103.46C226.214 101.131 225.605 98.4791 225.605 95.5048ZM250.545 95.5586C250.545 93.3369 250.098 91.4018 249.202 89.7534C248.306 88.105 247.087 86.8508 245.547 85.9907C244.041 85.0949 242.375 84.6469 240.548 84.6469C238.72 84.6469 237.054 85.077 235.549 85.937C234.044 86.797 232.843 88.0512 231.947 89.6996C231.051 91.348 230.603 93.2831 230.603 95.5048C230.603 97.7624 231.051 99.7333 231.947 101.418C232.843 103.066 234.044 104.338 235.549 105.234C237.054 106.094 238.72 106.524 240.548 106.524C242.375 106.524 244.041 106.094 245.547 105.234C247.087 104.338 248.306 103.066 249.202 101.418C250.098 99.7333 250.545 97.7803 250.545 95.5586ZM289.88 80.8843V110.34H284.989V105.986C284.057 107.492 282.749 108.674 281.065 109.534C279.416 110.358 277.589 110.77 275.582 110.77C273.289 110.77 271.228 110.305 269.401 109.373C267.573 108.405 266.122 106.972 265.047 105.073C264.008 103.173 263.488 100.862 263.488 98.1387V80.8843H268.326V97.4937C268.326 100.396 269.06 102.636 270.529 104.213C271.999 105.754 274.005 106.524 276.55 106.524C279.166 106.524 281.226 105.718 282.731 104.105C284.236 102.493 284.989 100.145 284.989 97.0637V80.8843H289.88ZM296.311 95.5586C296.311 92.5127 296.921 89.8609 298.139 87.6033C299.357 85.3099 301.042 83.5361 303.192 82.2819C305.378 81.0276 307.868 80.4005 310.663 80.4005C314.283 80.4005 317.257 81.2785 319.586 83.0344C321.951 84.7903 323.51 87.227 324.262 90.3447H318.995C318.493 88.5529 317.508 87.1375 316.038 86.0983C314.605 85.059 312.813 84.5394 310.663 84.5394C307.868 84.5394 305.611 85.507 303.89 87.442C302.17 89.3413 301.31 92.0468 301.31 95.5586C301.31 99.1062 302.17 101.848 303.89 103.783C305.611 105.718 307.868 106.685 310.663 106.685C312.813 106.685 314.605 106.184 316.038 105.18C317.472 104.177 318.457 102.743 318.995 100.88H324.262C323.474 103.89 321.897 106.309 319.532 108.137C317.167 109.928 314.211 110.824 310.663 110.824C307.868 110.824 305.378 110.197 303.192 108.943C301.042 107.689 299.357 105.915 298.139 103.621C296.921 101.328 296.311 98.6404 296.311 95.5586ZM336.756 84.9157V102.278C336.756 103.711 337.06 104.732 337.669 105.341C338.279 105.915 339.336 106.201 340.841 106.201H344.442V110.34H340.034C337.311 110.34 335.268 109.713 333.907 108.459C332.545 107.205 331.864 105.144 331.864 102.278V84.9157H328.048V80.8843H331.864V73.4665H336.756V80.8843H344.442V84.9157H336.756ZM352.895 76.1004C351.963 76.1004 351.175 75.7779 350.53 75.1328C349.885 74.4878 349.562 73.6995 349.562 72.7678C349.562 71.8361 349.885 71.0477 350.53 70.4027C351.175 69.7576 351.963 69.4351 352.895 69.4351C353.791 69.4351 354.543 69.7576 355.153 70.4027C355.798 71.0477 356.12 71.8361 356.12 72.7678C356.12 73.6995 355.798 74.4878 355.153 75.1328C354.543 75.7779 353.791 76.1004 352.895 76.1004ZM355.26 80.8843V110.34H350.369V80.8843H355.26ZM376.443 110.824C373.684 110.824 371.176 110.197 368.918 108.943C366.696 107.689 364.941 105.915 363.651 103.621C362.396 101.292 361.769 98.6045 361.769 95.5586C361.769 92.5485 362.414 89.8967 363.704 87.6033C365.03 85.2741 366.822 83.5002 369.079 82.2819C371.337 81.0276 373.863 80.4005 376.658 80.4005C379.454 80.4005 381.98 81.0276 384.238 82.2819C386.495 83.5002 388.269 85.2561 389.559 87.5496C390.885 89.843 391.548 92.5127 391.548 95.5586C391.548 98.6045 390.867 101.292 389.505 103.621C388.179 105.915 386.37 107.689 384.076 108.943C381.783 110.197 379.239 110.824 376.443 110.824ZM376.443 106.524C378.199 106.524 379.848 106.112 381.389 105.288C382.93 104.464 384.166 103.227 385.098 101.579C386.065 99.9304 386.549 97.9237 386.549 95.5586C386.549 93.1935 386.083 91.1868 385.151 89.5384C384.22 87.89 383.001 86.6716 381.496 85.8832C379.991 85.059 378.361 84.6469 376.605 84.6469C374.813 84.6469 373.165 85.059 371.66 85.8832C370.19 86.6716 369.008 87.89 368.112 89.5384C367.216 91.1868 366.768 93.1935 366.768 95.5586C366.768 97.9595 367.198 99.9842 368.058 101.633C368.954 103.281 370.137 104.517 371.606 105.341C373.075 106.13 374.688 106.524 376.443 106.524ZM412.331 80.3468C415.914 80.3468 418.817 81.4397 421.039 83.6257C423.26 85.7757 424.371 88.8934 424.371 92.9785V110.34H419.534V93.6773C419.534 90.7388 418.799 88.4992 417.33 86.9583C415.861 85.3816 413.854 84.5932 411.31 84.5932C408.73 84.5932 406.669 85.3995 405.128 87.012C403.623 88.6246 402.871 90.9718 402.871 94.0535V110.34H397.979V80.8843H402.871V85.077C403.838 83.5719 405.146 82.4073 406.794 81.5831C408.479 80.7589 410.324 80.3468 412.331 80.3468ZM442.789 110.824C440.532 110.824 438.507 110.448 436.715 109.695C434.924 108.907 433.508 107.832 432.469 106.47C431.43 105.073 430.856 103.478 430.749 101.686H435.802C435.945 103.156 436.626 104.356 437.844 105.288C439.098 106.219 440.729 106.685 442.736 106.685C444.599 106.685 446.068 106.273 447.143 105.449C448.218 104.625 448.756 103.586 448.756 102.331C448.756 101.041 448.182 100.092 447.036 99.4825C445.889 98.8375 444.115 98.2104 441.714 97.6012C439.528 97.0278 437.737 96.4545 436.339 95.8811C434.977 95.2719 433.795 94.394 432.792 93.2473C431.824 92.0647 431.34 90.5238 431.34 88.6246C431.34 87.1195 431.788 85.7399 432.684 84.4857C433.58 83.2315 434.852 82.246 436.5 81.5293C438.149 80.7768 440.03 80.4005 442.144 80.4005C445.405 80.4005 448.039 81.2247 450.046 82.8731C452.053 84.5215 453.128 86.7791 453.271 89.6459H448.38C448.272 88.105 447.645 86.8687 446.498 85.937C445.387 85.0053 443.882 84.5394 441.983 84.5394C440.227 84.5394 438.83 84.9157 437.79 85.6682C436.751 86.4208 436.232 87.4062 436.232 88.6246C436.232 89.5921 436.536 90.3984 437.145 91.0434C437.79 91.6526 438.579 92.1543 439.511 92.5485C440.478 92.9068 441.804 93.3189 443.488 93.7848C445.602 94.3581 447.322 94.9315 448.648 95.5048C449.974 96.0424 451.103 96.8666 452.035 97.9774C453.002 99.0883 453.504 100.54 453.54 102.331C453.54 103.944 453.092 105.395 452.196 106.685C451.3 107.975 450.028 108.997 448.38 109.749C446.767 110.466 444.904 110.824 442.789 110.824Z" fill="white"/>
<defs>
<radialGradient id="paint0_radial_291_3" cx="0" cy="0" r="1" gradientUnits="userSpaceOnUse" gradientTransform="translate(24.0322 38.1485) rotate(56.7251) scale(91.9839)">
<stop stop-color="white" stop-opacity="0.25"/>
<stop offset="1" stop-color="white" stop-opacity="0.07"/>
</radialGradient>
</defs>
</svg>
