<svg width="184" height="52" viewBox="0 0 184 52" fill="none" xmlns="http://www.w3.org/2000/svg">
<path d="M68.7499 35.8519L75.2883 19.7019H76.8575L69.5018 37.4538H67.9652L60.6095 19.7019H62.2114L68.7499 35.8519ZM86.608 37.7153C84.9516 37.7153 83.4586 37.3448 82.1292 36.6038C80.7997 35.8628 79.7535 34.8057 78.9907 33.4326C78.2497 32.0378 77.8792 30.4141 77.8792 28.5615C77.8792 26.7307 78.2606 25.1288 79.0234 23.7557C79.7862 22.3609 80.8324 21.3038 82.1619 20.5846C83.5131 19.8436 85.017 19.4731 86.6734 19.4731C88.3298 19.4731 89.8227 19.8436 91.1522 20.5846C92.4817 21.3038 93.517 22.35 94.258 23.723C95.0208 25.0961 95.4022 26.7089 95.4022 28.5615C95.4022 30.4141 95.0208 32.0378 94.258 33.4326C93.4952 34.8057 92.4381 35.8628 91.0868 36.6038C89.7574 37.3448 88.2644 37.7153 86.608 37.7153ZM86.608 36.4076C87.8939 36.4076 89.0926 36.1243 90.2041 35.5576C91.3375 34.9692 92.242 34.0865 92.9176 32.9096C93.5932 31.7327 93.9311 30.2833 93.9311 28.5615C93.9311 26.8615 93.5932 25.423 92.9176 24.2461C92.242 23.0692 91.3484 22.1974 90.2368 21.6307C89.1253 21.0423 87.9266 20.7481 86.6407 20.7481C85.3548 20.7481 84.1561 21.0423 83.0445 21.6307C81.9548 22.1974 81.0721 23.0692 80.3965 24.2461C79.7208 25.423 79.383 26.8615 79.383 28.5615C79.383 30.2833 79.7099 31.7327 80.3638 32.9096C81.0394 34.0865 81.9221 34.9692 83.0118 35.5576C84.1234 36.1243 85.3221 36.4076 86.608 36.4076ZM112.42 19.7019L102.089 45.7903H100.585L103.887 37.4538L96.433 19.7019H98.035L104.704 35.8192L110.916 19.7019H112.42ZM113.479 28.5615C113.479 26.7307 113.839 25.1288 114.558 23.7557C115.299 22.3827 116.313 21.3256 117.598 20.5846C118.906 19.8436 120.388 19.4731 122.045 19.4731C123.919 19.4731 125.51 19.9307 126.818 20.8461C128.125 21.7615 129.041 22.9275 129.564 24.3442V19.7019H131.035V37.4538H129.564V32.7788C129.041 34.2173 128.114 35.4051 126.785 36.3423C125.477 37.2576 123.897 37.7153 122.045 37.7153C120.388 37.7153 118.906 37.3448 117.598 36.6038C116.313 35.841 115.299 34.773 114.558 33.4C113.839 32.0051 113.479 30.3923 113.479 28.5615ZM129.564 28.5615C129.564 27.0141 129.237 25.6519 128.583 24.475C127.951 23.2763 127.079 22.3609 125.968 21.7288C124.856 21.075 123.614 20.7481 122.241 20.7481C120.802 20.7481 119.538 21.0641 118.448 21.6961C117.359 22.3064 116.509 23.2 115.898 24.3769C115.288 25.5538 114.983 26.9487 114.983 28.5615C114.983 30.1743 115.288 31.5692 115.898 32.7461C116.509 33.923 117.359 34.8275 118.448 35.4596C119.56 36.0916 120.824 36.4076 122.241 36.4076C123.614 36.4076 124.856 36.0916 125.968 35.4596C127.101 34.8057 127.984 33.8903 128.616 32.7134C129.248 31.5147 129.564 30.1307 129.564 28.5615ZM142.734 19.4731C144.608 19.4731 146.199 19.9307 147.507 20.8461C148.815 21.7397 149.73 22.8948 150.253 24.3115V19.7019H151.724V38.0096C151.724 39.6442 151.365 41.0717 150.645 42.2923C149.926 43.5346 148.956 44.4826 147.736 45.1365C146.515 45.8121 145.153 46.1499 143.649 46.1499C141.426 46.1499 139.585 45.616 138.124 44.548C136.664 43.4801 135.705 42.0416 135.247 40.2326H136.719C137.154 41.6493 137.972 42.7717 139.171 43.5999C140.369 44.4499 141.862 44.8749 143.649 44.8749C144.892 44.8749 146.014 44.5916 147.017 44.0249C148.019 43.4801 148.804 42.6846 149.37 41.6384C149.959 40.614 150.253 39.4044 150.253 38.0096V32.8115C149.73 34.2282 148.804 35.4051 147.474 36.3423C146.167 37.2576 144.587 37.7153 142.734 37.7153C141.078 37.7153 139.596 37.3448 138.288 36.6038C137.002 35.841 135.988 34.773 135.247 33.4C134.528 32.0051 134.169 30.3923 134.169 28.5615C134.169 26.7307 134.528 25.1288 135.247 23.7557C135.988 22.3827 137.002 21.3256 138.288 20.5846C139.596 19.8436 141.078 19.4731 142.734 19.4731ZM150.253 28.5615C150.253 27.0141 149.926 25.6519 149.272 24.475C148.64 23.2763 147.769 22.3609 146.657 21.7288C145.545 21.075 144.303 20.7481 142.93 20.7481C141.492 20.7481 140.228 21.0641 139.138 21.6961C138.048 22.3064 137.198 23.2 136.588 24.3769C135.978 25.5538 135.672 26.9487 135.672 28.5615C135.672 30.1743 135.978 31.5692 136.588 32.7461C137.198 33.923 138.048 34.8275 139.138 35.4596C140.249 36.0916 141.513 36.4076 142.93 36.4076C144.303 36.4076 145.545 36.0916 146.657 35.4596C147.79 34.8057 148.673 33.8903 149.305 32.7134C149.937 31.5147 150.253 30.1307 150.253 28.5615ZM171.76 27.3846C171.76 28.1692 171.738 28.7577 171.694 29.15H156.362C156.405 30.741 156.754 32.0814 157.408 33.1711C158.062 34.2609 158.923 35.0782 159.991 35.623C161.059 36.1679 162.225 36.4403 163.489 36.4403C165.232 36.4403 166.693 36.0153 167.869 35.1653C169.046 34.2935 169.787 33.1166 170.093 31.6346H171.629C171.28 33.4435 170.387 34.9147 168.948 36.048C167.51 37.1596 165.69 37.7153 163.489 37.7153C161.832 37.7153 160.35 37.3448 159.043 36.6038C157.735 35.8628 156.71 34.8057 155.969 33.4326C155.228 32.0378 154.858 30.4141 154.858 28.5615C154.858 26.7089 155.218 25.0961 155.937 23.723C156.678 22.35 157.702 21.3038 159.01 20.5846C160.318 19.8436 161.81 19.4731 163.489 19.4731C165.189 19.4731 166.66 19.8436 167.902 20.5846C169.166 21.3038 170.125 22.2737 170.779 23.4942C171.433 24.6929 171.76 25.9897 171.76 27.3846ZM170.289 27.9403C170.354 26.3711 170.071 25.0416 169.439 23.9519C168.828 22.8622 167.989 22.0557 166.921 21.5327C165.853 20.9878 164.698 20.7154 163.456 20.7154C162.214 20.7154 161.059 20.9878 159.991 21.5327C158.944 22.0557 158.084 22.8622 157.408 23.9519C156.754 25.0416 156.405 26.3711 156.362 27.9403H170.289ZM176.369 23.3634C176.805 22.0557 177.579 21.0641 178.691 20.3884C179.802 19.691 181.219 19.3423 182.941 19.3423V20.8788H182.45C180.707 20.8788 179.257 21.3801 178.102 22.3827C176.947 23.3634 176.369 24.9763 176.369 27.2211V37.4538H174.898V19.7019H176.369V23.3634Z" fill="white"/>
<path d="M4.8312 35.0844H13.6254V37.5363H1.4312V35.0844L10.1273 22.0402H1.49659V19.621H13.56V22.0402L4.8312 35.0844Z" fill="white"/>
<path d="M31.3914 21.8417C31.7556 22.2758 32.1159 22.756 32.4721 23.2822L21.5029 32.4864C22.7211 33.7687 24.0699 34.4436 25.5491 34.5111C27.031 34.548 28.373 34.062 29.5751 33.0534C30.5602 32.2268 31.1891 31.315 31.462 30.3178C31.7376 29.2899 31.6867 28.2799 31.3094 27.2878L33.7637 25.2284C34.5031 26.8556 34.6721 28.5489 34.2707 30.3083C33.8552 32.051 32.8294 33.6088 31.1932 34.9817C29.8909 36.0745 28.4771 36.763 26.9516 37.0472C25.4428 37.3174 23.948 37.1634 22.467 36.5852C20.972 35.9903 19.6291 34.9833 18.4383 33.5642C17.2475 32.145 16.4877 30.663 16.1587 29.1182C15.8298 27.5733 15.9364 26.0898 16.4785 24.6675C17.0233 23.2146 17.9635 21.9277 19.2992 20.807C20.6015 19.7142 21.9916 19.0314 23.4697 18.7585C24.9478 18.4856 26.3742 18.6259 27.7491 19.1793C29.1266 19.7021 30.3407 20.5895 31.3914 21.8417ZM28.638 23.3412C27.9095 22.473 27.0941 21.8912 26.1918 21.5956C25.2754 21.2834 24.3502 21.2489 23.4162 21.4921C22.4849 21.7045 21.6185 22.147 20.8171 22.8194C19.6651 23.7861 18.9882 24.9799 18.7866 26.401C18.6016 27.8081 18.997 29.2118 19.9729 30.6121L28.638 23.3412Z" fill="white"/>
<path d="M46.4336 19.2941C48.6131 19.2941 50.3785 19.9588 51.7298 21.2883C53.0811 22.596 53.7567 24.4921 53.7567 26.9767V37.5363H50.8144V27.4017C50.8144 25.6146 50.3676 24.2524 49.474 23.3152C48.5804 22.3562 47.3599 21.8768 45.8125 21.8768C44.2433 21.8768 42.9901 22.3671 42.0529 23.3479C41.1375 24.3287 40.6798 25.7562 40.6798 27.6306V37.5363H37.7048V19.621H40.6798V22.171C41.2683 21.2556 42.0638 20.5473 43.0663 20.046C44.0907 19.5447 45.2131 19.2941 46.4336 19.2941Z" fill="white"/>
</svg>
