<svg width="300" height="84" viewBox="0 0 300 84" fill="none" xmlns="http://www.w3.org/2000/svg">
<path d="M108.065 65.6454L118.478 39.9248H120.977L109.262 68.1967H106.815L95.1001 39.9248H97.6513L108.065 65.6454ZM136.506 68.6132C133.868 68.6132 131.49 68.0231 129.373 66.8429C127.255 65.6628 125.589 63.9793 124.374 61.7925C123.194 59.571 122.604 56.9851 122.604 54.0347C122.604 51.119 123.211 48.5677 124.426 46.381C125.641 44.1595 127.307 42.476 129.425 41.3305C131.577 40.1504 133.972 39.5603 136.61 39.5603C139.248 39.5603 141.626 40.1504 143.743 41.3305C145.86 42.476 147.509 44.1421 148.689 46.3289C149.904 48.5157 150.511 51.0843 150.511 54.0347C150.511 56.9851 149.904 59.571 148.689 61.7925C147.474 63.9793 145.791 65.6628 143.639 66.8429C141.521 68.0231 139.144 68.6132 136.506 68.6132ZM136.506 66.5305C138.554 66.5305 140.463 66.0793 142.233 65.1768C144.038 64.2396 145.478 62.8338 146.554 60.9595C147.63 59.0851 148.168 56.7768 148.168 54.0347C148.168 51.3272 147.63 49.0363 146.554 47.1619C145.478 45.2876 144.055 43.8991 142.285 42.9967C140.515 42.0595 138.606 41.5909 136.558 41.5909C134.51 41.5909 132.601 42.0595 130.83 42.9967C129.095 43.8991 127.689 45.2876 126.613 47.1619C125.537 49.0363 124.999 51.3272 124.999 54.0347C124.999 56.7768 125.52 59.0851 126.561 60.9595C127.637 62.8338 129.043 64.2396 130.778 65.1768C132.549 66.0793 134.458 66.5305 136.506 66.5305ZM177.613 39.9248L161.161 81.4735H158.766L164.024 68.1967L152.153 39.9248H154.704L165.326 65.5933L175.218 39.9248H177.613ZM179.301 54.0347C179.301 51.119 179.874 48.5677 181.019 46.381C182.2 44.1942 183.814 42.5107 185.862 41.3305C187.944 40.1504 190.304 39.5603 192.942 39.5603C195.928 39.5603 198.462 40.2892 200.544 41.7471C202.627 43.2049 204.085 45.0619 204.918 47.3181V39.9248H207.261V68.1967H204.918V60.7512C204.085 63.0421 202.609 64.9338 200.492 66.4264C198.409 67.8843 195.893 68.6132 192.942 68.6132C190.304 68.6132 187.944 68.0231 185.862 66.8429C183.814 65.6281 182.2 63.9272 181.019 61.7405C179.874 59.519 179.301 56.9504 179.301 54.0347ZM204.918 54.0347C204.918 51.5702 204.397 49.4008 203.356 47.5264C202.349 45.6173 200.961 44.1595 199.19 43.1529C197.42 42.1115 195.442 41.5909 193.255 41.5909C190.964 41.5909 188.951 42.0942 187.215 43.1008C185.48 44.0727 184.126 45.4958 183.154 47.3702C182.182 49.2446 181.696 51.4661 181.696 54.0347C181.696 56.6033 182.182 58.8248 183.154 60.6991C184.126 62.5735 185.48 64.014 187.215 65.0206C188.985 66.0272 190.999 66.5305 193.255 66.5305C195.442 66.5305 197.42 66.0272 199.19 65.0206C200.995 63.9793 202.401 62.5214 203.408 60.6471C204.414 58.738 204.918 56.5338 204.918 54.0347ZM225.893 39.5603C228.878 39.5603 231.412 40.2892 233.494 41.7471C235.577 43.1702 237.035 45.0099 237.868 47.2661V39.9248H240.211V69.0818C240.211 71.6851 239.638 73.9586 238.493 75.9024C237.347 77.881 235.803 79.3909 233.859 80.4322C231.915 81.5082 229.746 82.0462 227.35 82.0462C223.81 82.0462 220.877 81.1958 218.551 79.495C216.226 77.7942 214.698 75.5033 213.969 72.6223H216.312C217.007 74.8785 218.308 76.6661 220.217 77.9851C222.126 79.3388 224.504 80.0157 227.35 80.0157C229.329 80.0157 231.117 79.5644 232.713 78.6619C234.31 77.7942 235.56 76.5272 236.462 74.8611C237.399 73.2297 237.868 71.3033 237.868 69.0818V60.8033C237.035 63.0595 235.56 64.9338 233.442 66.4264C231.36 67.8843 228.843 68.6132 225.893 68.6132C223.255 68.6132 220.894 68.0231 218.812 66.8429C216.764 65.6281 215.15 63.9272 213.969 61.7405C212.824 59.519 212.251 56.9504 212.251 54.0347C212.251 51.119 212.824 48.5677 213.969 46.381C215.15 44.1942 216.764 42.5107 218.812 41.3305C220.894 40.1504 223.255 39.5603 225.893 39.5603ZM237.868 54.0347C237.868 51.5702 237.347 49.4008 236.306 47.5264C235.299 45.6173 233.911 44.1595 232.141 43.1529C230.37 42.1115 228.392 41.5909 226.205 41.5909C223.914 41.5909 221.901 42.0942 220.165 43.1008C218.43 44.0727 217.076 45.4958 216.104 47.3702C215.132 49.2446 214.646 51.4661 214.646 54.0347C214.646 56.6033 215.132 58.8248 216.104 60.6991C217.076 62.5735 218.43 64.014 220.165 65.0206C221.936 66.0272 223.949 66.5305 226.205 66.5305C228.392 66.5305 230.37 66.0272 232.141 65.0206C233.946 63.9793 235.351 62.5214 236.358 60.6471C237.365 58.738 237.868 56.5338 237.868 54.0347ZM272.12 52.1603C272.12 53.4099 272.085 54.3471 272.015 54.9719H247.596C247.666 57.5057 248.221 59.6405 249.263 61.376C250.304 63.1115 251.675 64.4132 253.376 65.281C255.077 66.1487 256.934 66.5826 258.947 66.5826C261.724 66.5826 264.049 65.9057 265.924 64.552C267.798 63.1636 268.978 61.2892 269.464 58.9289H271.911C271.356 61.8099 269.933 64.1529 267.642 65.9578C265.351 67.7281 262.453 68.6132 258.947 68.6132C256.309 68.6132 253.949 68.0231 251.866 66.8429C249.783 65.6628 248.152 63.9793 246.972 61.7925C245.791 59.571 245.201 56.9851 245.201 54.0347C245.201 51.0843 245.774 48.5157 246.92 46.3289C248.1 44.1421 249.731 42.476 251.814 41.3305C253.896 40.1504 256.274 39.5603 258.947 39.5603C261.654 39.5603 263.997 40.1504 265.976 41.3305C267.989 42.476 269.516 44.0206 270.558 45.9644C271.599 47.8735 272.12 49.9388 272.12 52.1603ZM269.777 53.0454C269.881 50.5462 269.43 48.4289 268.423 46.6933C267.451 44.9578 266.115 43.6735 264.414 42.8405C262.713 41.9727 260.873 41.5388 258.895 41.5388C256.916 41.5388 255.077 41.9727 253.376 42.8405C251.71 43.6735 250.339 44.9578 249.263 46.6933C248.221 48.4289 247.666 50.5462 247.596 53.0454H269.777ZM279.461 45.7562C280.155 43.6735 281.387 42.0942 283.158 41.0181C284.928 39.9074 287.184 39.352 289.926 39.352V41.7991H289.145C286.368 41.7991 284.06 42.5975 282.22 44.1942C280.381 45.7562 279.461 48.3248 279.461 51.9V68.1967H277.118V39.9248H279.461V45.7562Z" fill="white"/>
<path d="M101.765 32.0603H115.77V35.9653H96.3497V32.0603L110.199 11.2859H96.4538V7.43304H115.666V11.2859L101.765 32.0603Z" fill="white"/>
<path d="M143.849 11.0479C144.429 11.7392 145.003 12.5039 145.57 13.342L128.101 28.0007C130.041 30.0429 132.189 31.1178 134.545 31.2254C136.905 31.284 139.042 30.5102 140.957 28.9037C142.526 27.5873 143.527 26.1351 143.962 24.547C144.401 22.91 144.32 21.3015 143.719 19.7213L147.627 16.4415C148.805 19.033 149.074 21.7298 148.435 24.5318C147.773 27.3073 146.14 29.7883 143.534 31.9749C141.46 33.7152 139.208 34.8117 136.778 35.2643C134.376 35.6947 131.995 35.4494 129.636 34.5286C127.255 33.5812 125.117 31.9774 123.22 29.7172C121.324 27.4571 120.113 25.0968 119.59 22.6365C119.066 20.1761 119.235 17.8134 120.099 15.5483C120.966 13.2344 122.464 11.1849 124.591 9.39997C126.665 7.65966 128.879 6.57219 131.233 6.13755C133.587 5.70291 135.859 5.92631 138.048 6.80773C140.242 7.64026 142.176 9.05364 143.849 11.0479ZM139.464 13.436C138.304 12.0533 137.005 11.1267 135.568 10.656C134.109 10.1588 132.635 10.1038 131.148 10.491C129.665 10.8294 128.285 11.534 127.009 12.605C125.174 14.1445 124.096 16.0459 123.775 18.3091C123.48 20.55 124.11 22.7856 125.664 25.0158L139.464 13.436Z" fill="white"/>
<path d="M168.021 6.91237C171.492 6.91237 174.304 7.97105 176.456 10.0884C178.608 12.1711 179.684 15.1909 179.684 19.1479V35.9653H174.998V19.8248C174.998 16.9785 174.287 14.8091 172.863 13.3165C171.44 11.7892 169.496 11.0256 167.032 11.0256C164.533 11.0256 162.537 11.8066 161.044 13.3686C159.587 14.9306 158.858 17.2041 158.858 20.1892V35.9653H154.12V7.43304H158.858V11.4942C159.795 10.0363 161.062 8.90824 162.658 8.1099C164.29 7.31155 166.077 6.91237 168.021 6.91237Z" fill="white"/>
<rect x="4.46899" y="2.02933" width="67.9215" height="67.9215" rx="11.8721" fill="url(#paint0_radial_607_31)"/>
<rect x="4.46899" y="2.02933" width="67.9215" height="67.9215" rx="11.8721" stroke="white" stroke-opacity="0.2" stroke-width="1.5"/>
<rect x="4.46899" y="2.02933" width="67.9215" height="67.9215" rx="11.8721" stroke="url(#paint1_linear_607_31)" stroke-width="1.5"/>
<rect x="4.46899" y="2.02933" width="67.9215" height="67.9215" rx="11.8721" stroke="url(#paint2_linear_607_31)" stroke-width="1.5"/>
<g clip-path="url(#clip0_607_31)">
<path d="M55.0987 18.9981H54.948L54.8718 19.1283L52.1878 23.7144L52.1877 23.7146L47.5048 31.7268L47.4272 31.8595L47.5048 31.9922L50.1852 36.5784L50.4121 36.9667L50.6392 36.5784L58.0061 23.98L58.0061 23.98L60.6865 19.3938L60.9178 18.9981H60.4595H55.0987Z" fill="url(#paint3_radial_607_31)" stroke="white" stroke-width="0.52592" stroke-miterlimit="10"/>
<path d="M28.5465 24.1102H39.0854L38.387 25.3039L38.3869 25.304L31.7673 36.6268L31.7673 36.6269L29.0833 41.2129L29.0056 41.3458L29.0833 41.4786L31.7636 46.0592L31.7637 46.0593L35.5202 52.4856L38.2005 57.0718L38.4274 57.4599L38.6545 57.0719L41.3385 52.4857L41.3386 52.4856L47.9583 41.1591L48.0358 41.0264L47.9582 40.8937L45.2779 36.3093L45.0509 35.9211L44.8238 36.3093L38.4276 47.2476L34.9738 41.3404L41.5212 30.1521L41.5213 30.152L44.2017 25.5658L44.2017 25.5658L45.128 23.98L45.1281 23.9799L47.8102 19.3939L48.0416 18.9981H47.5832H31.2305H31.0798L31.0036 19.1283L28.3196 23.7144L28.0879 24.1102H28.5465Z" fill="url(#paint4_radial_607_31)" stroke="white" stroke-width="0.52592" stroke-miterlimit="10"/>
<path d="M24.6703 23.7146L24.6702 23.7145L21.988 19.1283L21.9119 18.9981H21.761H16.4003H15.942L16.1732 19.3938L18.8536 23.9799L18.8537 23.98L23.5895 32.0751L23.5896 32.0753L26.268 36.6595L26.495 37.048L26.7221 36.6596L29.4025 32.0752L29.4801 31.9425L29.4024 31.8097L26.7221 27.2273L26.7221 27.2272L24.6703 23.7146Z" fill="url(#paint5_radial_607_31)" stroke="white" stroke-width="0.52592" stroke-miterlimit="10"/>
</g>
<defs>
<radialGradient id="paint0_radial_607_31" cx="0" cy="0" r="1" gradientUnits="userSpaceOnUse" gradientTransform="translate(20.7898 16.0741) rotate(56.7251) scale(65.3393)">
<stop stop-color="white" stop-opacity="0.25"/>
<stop offset="1" stop-color="white" stop-opacity="0.05"/>
</radialGradient>
<linearGradient id="paint1_linear_607_31" x1="0.24792" y1="1.27933" x2="23.157" y2="25.5768" gradientUnits="userSpaceOnUse">
<stop stop-color="white"/>
<stop offset="1" stop-color="white" stop-opacity="0"/>
</linearGradient>
<linearGradient id="paint2_linear_607_31" x1="103.339" y1="139.753" x2="54.3967" y2="47.7697" gradientUnits="userSpaceOnUse">
<stop stop-color="white"/>
<stop offset="1" stop-color="white" stop-opacity="0"/>
</linearGradient>
<radialGradient id="paint3_radial_607_31" cx="0" cy="0" r="1" gradientUnits="userSpaceOnUse" gradientTransform="translate(31.6006 22.1817) rotate(30.7685) scale(33.7941 33.7121)">
<stop stop-color="white"/>
<stop offset="1" stop-color="white" stop-opacity="0.3"/>
</radialGradient>
<radialGradient id="paint4_radial_607_31" cx="0" cy="0" r="1" gradientUnits="userSpaceOnUse" gradientTransform="translate(31.2 26.1613) rotate(65.8152) scale(41.0074 41.1473)">
<stop stop-color="white"/>
<stop offset="1" stop-color="white" stop-opacity="0.3"/>
</radialGradient>
<radialGradient id="paint5_radial_607_31" cx="0" cy="0" r="1" gradientUnits="userSpaceOnUse" gradientTransform="translate(27.6003 22.5797) rotate(98.7903) scale(20.9398 21.0422)">
<stop stop-color="white"/>
<stop offset="1" stop-color="white" stop-opacity="0.3"/>
</radialGradient>
<clipPath id="clip0_607_31">
<rect width="48" height="39" fill="white" transform="translate(14.4 18.6)"/>
</clipPath>
</defs>
</svg>
