<svg width="303" height="103" viewBox="0 0 303 103" fill="none" xmlns="http://www.w3.org/2000/svg">
<rect y="1.03168" width="100" height="100" rx="12" fill="url(#paint0_radial_291_3)"/>
<g clip-path="url(#clip0_291_3)">
<path d="M75.0472 24.0317L71.0212 30.9697L63.9968 43.0908L68.0174 50.0289L79.0678 30.9697L83.0884 24.0317H75.0472Z" fill="white" stroke="white" stroke-width="0.5" stroke-miterlimit="10"/>
<path d="M50.0413 67.1583L44.4037 57.4336L54.3414 40.3069L58.362 33.3688L59.7515 30.9697L63.7748 24.0317H39.2458L35.2197 30.9697H51.7158L50.3208 33.3743L40.3914 50.5038L36.3653 57.4418L40.3859 64.3717L46.0207 74.0936L50.0413 81.0317L54.0673 74.0936L63.9968 56.9587L59.9762 50.0234L50.0413 67.1583Z" fill="white" stroke="white" stroke-width="0.5" stroke-miterlimit="10"/>
<path d="M29.0644 30.9697L25.0411 24.0317H17L21.0206 30.9697L28.1244 43.2164L32.1422 50.1517L36.1628 43.2164L32.1422 36.2838L29.0644 30.9697Z" fill="white" stroke="white" stroke-width="0.5" stroke-miterlimit="10"/>
</g>
<path d="M133.904 41.0757H147.092V46.0317H127.1V41.4957L140.204 21.6717H127.1V16.7157H147.092V21.2517L133.904 41.0757ZM173.727 33.8937C173.727 34.7337 173.671 35.4897 173.559 36.1617H156.549C156.689 37.8417 157.277 39.1577 158.313 40.1097C159.349 41.0617 160.623 41.5377 162.135 41.5377C164.319 41.5377 165.873 40.5997 166.797 38.7237H173.139C172.467 40.9637 171.179 42.8117 169.275 44.2677C167.371 45.6957 165.033 46.4097 162.261 46.4097C160.021 46.4097 158.005 45.9197 156.213 44.9397C154.449 43.9317 153.063 42.5177 152.055 40.6977C151.075 38.8777 150.585 36.7777 150.585 34.3977C150.585 31.9897 151.075 29.8757 152.055 28.0557C153.035 26.2357 154.407 24.8357 156.171 23.8557C157.935 22.8757 159.965 22.3857 162.261 22.3857C164.473 22.3857 166.447 22.8617 168.183 23.8137C169.947 24.7657 171.305 26.1237 172.257 27.8877C173.237 29.6237 173.727 31.6257 173.727 33.8937ZM167.637 32.2137C167.609 30.7017 167.063 29.4977 165.999 28.6017C164.935 27.6777 163.633 27.2157 162.093 27.2157C160.637 27.2157 159.405 27.6637 158.397 28.5597C157.417 29.4277 156.815 30.6457 156.591 32.2137H167.637ZM190.913 22.4277C193.685 22.4277 195.925 23.3097 197.633 25.0737C199.341 26.8097 200.195 29.2457 200.195 32.3817V46.0317H194.315V33.1797C194.315 31.3317 193.853 29.9177 192.929 28.9377C192.005 27.9297 190.745 27.4257 189.149 27.4257C187.525 27.4257 186.237 27.9297 185.285 28.9377C184.361 29.9177 183.899 31.3317 183.899 33.1797V46.0317H178.019V22.7637H183.899V25.6617C184.683 24.6537 185.677 23.8697 186.881 23.3097C188.113 22.7217 189.457 22.4277 190.913 22.4277Z" fill="white"/>
<path d="M152.426 55.7577L141.38 85.0317H136.97L125.924 55.7577H129.998L139.196 80.9997L148.394 55.7577H152.426ZM166.655 85.4097C164.499 85.4097 162.539 84.9197 160.775 83.9397C159.039 82.9597 157.667 81.5737 156.659 79.7817C155.679 77.9617 155.189 75.8617 155.189 73.4817C155.189 71.1297 155.693 69.0577 156.701 67.2657C157.737 65.4457 159.137 64.0597 160.901 63.1077C162.665 62.1277 164.639 61.6377 166.823 61.6377C169.007 61.6377 170.981 62.1277 172.745 63.1077C174.509 64.0597 175.895 65.4317 176.903 67.2237C177.939 69.0157 178.457 71.1017 178.457 73.4817C178.457 75.8617 177.925 77.9617 176.861 79.7817C175.825 81.5737 174.411 82.9597 172.619 83.9397C170.827 84.9197 168.839 85.4097 166.655 85.4097ZM166.655 82.0497C168.027 82.0497 169.315 81.7277 170.519 81.0837C171.723 80.4397 172.689 79.4737 173.417 78.1857C174.173 76.8977 174.551 75.3297 174.551 73.4817C174.551 71.6337 174.187 70.0657 173.459 68.7777C172.731 67.4897 171.779 66.5377 170.603 65.9217C169.427 65.2777 168.153 64.9557 166.781 64.9557C165.381 64.9557 164.093 65.2777 162.917 65.9217C161.769 66.5377 160.845 67.4897 160.145 68.7777C159.445 70.0657 159.095 71.6337 159.095 73.4817C159.095 75.3577 159.431 76.9397 160.103 78.2277C160.803 79.5157 161.727 80.4817 162.875 81.1257C164.023 81.7417 165.283 82.0497 166.655 82.0497ZM203.306 62.0157L189.446 95.8677H185.498L190.034 84.7797L180.752 62.0157H184.994L192.218 80.6637L199.358 62.0157H203.306ZM205.72 73.4397C205.72 71.0877 206.196 69.0297 207.148 67.2657C208.1 65.4737 209.402 64.0877 211.054 63.1077C212.734 62.1277 214.596 61.6377 216.64 61.6377C218.656 61.6377 220.406 62.0717 221.89 62.9397C223.374 63.8077 224.48 64.8997 225.208 66.2157V62.0157H229.072V85.0317H225.208V80.7477C224.452 82.0917 223.318 83.2117 221.806 84.1077C220.322 84.9757 218.586 85.4097 216.598 85.4097C214.554 85.4097 212.706 84.9057 211.054 83.8977C209.402 82.8897 208.1 81.4757 207.148 79.6557C206.196 77.8357 205.72 75.7637 205.72 73.4397ZM225.208 73.4817C225.208 71.7457 224.858 70.2337 224.158 68.9457C223.458 67.6577 222.506 66.6777 221.302 66.0057C220.126 65.3057 218.824 64.9557 217.396 64.9557C215.968 64.9557 214.666 65.2917 213.49 65.9637C212.314 66.6357 211.376 67.6157 210.676 68.9037C209.976 70.1917 209.626 71.7037 209.626 73.4397C209.626 75.2037 209.976 76.7437 210.676 78.0597C211.376 79.3477 212.314 80.3417 213.49 81.0417C214.666 81.7137 215.968 82.0497 217.396 82.0497C218.824 82.0497 220.126 81.7137 221.302 81.0417C222.506 80.3417 223.458 79.3477 224.158 78.0597C224.858 76.7437 225.208 75.2177 225.208 73.4817ZM245.023 61.6377C247.011 61.6377 248.747 62.0717 250.231 62.9397C251.743 63.8077 252.863 64.8997 253.591 66.2157V62.0157H257.455V85.5357C257.455 87.6357 257.007 89.4977 256.111 91.1217C255.215 92.7737 253.927 94.0617 252.247 94.9857C250.595 95.9097 248.663 96.3717 246.451 96.3717C243.427 96.3717 240.907 95.6577 238.891 94.2297C236.875 92.8017 235.685 90.8557 235.321 88.3917H239.101C239.521 89.7917 240.389 90.9117 241.705 91.7517C243.021 92.6197 244.603 93.0537 246.451 93.0537C248.551 93.0537 250.259 92.3957 251.575 91.0797C252.919 89.7637 253.591 87.9157 253.591 85.5357V80.7057C252.835 82.0497 251.715 83.1697 250.231 84.0657C248.747 84.9617 247.011 85.4097 245.023 85.4097C242.979 85.4097 241.117 84.9057 239.437 83.8977C237.785 82.8897 236.483 81.4757 235.531 79.6557C234.579 77.8357 234.103 75.7637 234.103 73.4397C234.103 71.0877 234.579 69.0297 235.531 67.2657C236.483 65.4737 237.785 64.0877 239.437 63.1077C241.117 62.1277 242.979 61.6377 245.023 61.6377ZM253.591 73.4817C253.591 71.7457 253.241 70.2337 252.541 68.9457C251.841 67.6577 250.889 66.6777 249.685 66.0057C248.509 65.3057 247.207 64.9557 245.779 64.9557C244.351 64.9557 243.049 65.2917 241.873 65.9637C240.697 66.6357 239.759 67.6157 239.059 68.9037C238.359 70.1917 238.009 71.7037 238.009 73.4397C238.009 75.2037 238.359 76.7437 239.059 78.0597C239.759 79.3477 240.697 80.3417 241.873 81.0417C243.049 81.7137 244.351 82.0497 245.779 82.0497C247.207 82.0497 248.509 81.7137 249.685 81.0417C250.889 80.3417 251.841 79.3477 252.541 78.0597C253.241 76.7437 253.591 75.2177 253.591 73.4817ZM284.914 72.6417C284.914 73.3697 284.872 74.1397 284.788 74.9517H266.392C266.532 77.2197 267.302 78.9977 268.702 80.2857C270.13 81.5457 271.852 82.1757 273.868 82.1757C275.52 82.1757 276.892 81.7977 277.984 81.0417C279.104 80.2577 279.888 79.2217 280.336 77.9337H284.452C283.836 80.1457 282.604 81.9517 280.756 83.3517C278.908 84.7237 276.612 85.4097 273.868 85.4097C271.684 85.4097 269.724 84.9197 267.988 83.9397C266.28 82.9597 264.936 81.5737 263.956 79.7817C262.976 77.9617 262.486 75.8617 262.486 73.4817C262.486 71.1017 262.962 69.0157 263.914 67.2237C264.866 65.4317 266.196 64.0597 267.904 63.1077C269.64 62.1277 271.628 61.6377 273.868 61.6377C276.052 61.6377 277.984 62.1137 279.664 63.0657C281.344 64.0177 282.632 65.3337 283.528 67.0137C284.452 68.6657 284.914 70.5417 284.914 72.6417ZM280.966 71.8437C280.966 70.3877 280.644 69.1417 280 68.1057C279.356 67.0417 278.474 66.2437 277.354 65.7117C276.262 65.1517 275.044 64.8717 273.7 64.8717C271.768 64.8717 270.116 65.4877 268.744 66.7197C267.4 67.9517 266.63 69.6597 266.434 71.8437H280.966ZM293.781 65.7537C294.453 64.4377 295.405 63.4157 296.637 62.6877C297.897 61.9597 299.423 61.5957 301.215 61.5957V65.5437H300.207C295.923 65.5437 293.781 67.8677 293.781 72.5157V85.0317H289.959V62.0157H293.781V65.7537Z" fill="white"/>
<defs>
<radialGradient id="paint0_radial_291_3" cx="0" cy="0" r="1" gradientUnits="userSpaceOnUse" gradientTransform="translate(24.5902 22.3432) rotate(56.7251) scale(94.1196)">
<stop stop-color="white" stop-opacity="0.25"/>
<stop offset="1" stop-color="white" stop-opacity="0.05"/>
</radialGradient>
<clipPath id="clip0_291_3">
<rect width="72" height="59" fill="white" transform="translate(14 23.0317)"/>
</clipPath>
</defs>
</svg>
